<svg width="185" height="56" viewBox="0 0 185 56" fill="none" xmlns="http://www.w3.org/2000/svg">
<path fill-rule="evenodd" clip-rule="evenodd" d="M62.5417 24.3252L60.0958 48.1252C59.7464 50.4002 57.8246 51.9752 55.5534 51.6252C53.4568 51.4502 51.8844 49.5252 52.0592 47.2502L54.6798 23.4502C55.7281 24.3252 57.1257 24.8502 58.5234 25.0252C59.9211 25.2002 61.3188 24.8502 62.5417 24.3252Z" fill="#E43F7E"/>
<path fill-rule="evenodd" clip-rule="evenodd" d="M59.9259 13.1261C62.3718 13.4761 64.2936 15.7511 64.1189 18.3761C63.7695 21.0011 61.4983 22.9261 58.8777 22.5761C56.257 22.2261 54.3352 19.9511 54.6846 17.3261C54.8593 14.7011 57.3053 12.7761 59.9259 13.1261Z" fill="#E43F7E"/>
<path fill-rule="evenodd" clip-rule="evenodd" d="M77.2203 24.3252L74.5997 48.1252C74.2503 50.4002 72.3285 51.9752 70.2319 51.6252C67.9607 51.4502 66.3883 49.5252 66.563 47.2502L69.1837 23.4502C70.2319 24.3252 71.6296 24.8502 73.0273 25.0252C74.5997 25.2002 75.9974 24.8502 77.2203 24.3252Z" fill="#E43F7E"/>
<path fill-rule="evenodd" clip-rule="evenodd" d="M74.4357 13.1261C77.0563 13.4761 78.8034 15.7511 78.6287 18.3761C78.2793 21.0011 76.0081 22.9261 73.3874 22.5761C70.7668 22.2261 68.845 19.9511 69.1944 17.3261C69.3691 14.7011 71.815 12.7761 74.4357 13.1261Z" fill="#E43F7E"/>
<path fill-rule="evenodd" clip-rule="evenodd" d="M118.36 42.3497C120.981 42.6997 122.728 44.9747 122.554 47.5997C122.204 50.2247 119.933 52.1497 117.312 51.7997C114.692 51.4497 112.77 49.1747 113.119 46.5497C113.294 43.9247 115.74 41.9997 118.36 42.3497Z" fill="#E43F7E"/>
<path d="M31.3604 8.925C30.3121 9.1 28.565 9.625 26.2938 11.025C16.8595 16.275 11.4435 22.575 9.34697 31.5C6.20219 44.625 12.1423 56 26.3812 56C39.6591 56 46.7348 49.7 48.744 39.2C50.4911 30.8 46.4728 22.225 37.3005 22.225C28.2156 22.225 24.372 27.3 22.9743 33.075C22.1008 36.575 23.6732 44.45 28.9145 44.45C28.0409 41.475 27.5168 36.75 28.2156 33.6C29.4386 28.875 31.011 24.85 36.427 24.85C41.4936 24.85 42.5418 31.675 40.4453 39.025C38.1741 46.55 34.8546 53.2 27.1674 53.025C18.0825 53.025 16.248 39.725 18.1698 31.85C20.6157 20.825 30.0501 9.8 40.7947 8.925C50.9279 8.925 58.091 9.975 65.3414 0C63.5943 0.35 61.8472 0.525 59.7507 0.875C50.5785 1.925 32.0592 1.225 22.9743 1.225C11.7055 1.3125 0 8.4875 0 19.6875C4.36774 12.1625 10.3079 9.0125 18.8686 9.0125H27.4294H31.3604V8.925Z" fill="#E43F7E"/>
<path fill-rule="evenodd" clip-rule="evenodd" d="M86.5688 22.3994C88.6653 22.5744 90.2377 24.4994 90.063 26.5994V26.7744C91.6354 24.6744 93.5572 23.6244 96.1779 23.6244C102.293 23.6244 103.341 28.5244 102.817 33.5994C102.467 36.7494 101.419 41.1244 101.594 44.0994C101.594 44.7994 101.769 45.3244 102.293 45.6744C102.642 46.1994 103.166 46.3744 104.04 46.3744C104.739 46.3744 105.437 46.1994 105.962 45.8494C106.486 45.3244 106.835 44.7994 107.185 44.0994C107.359 43.5744 107.709 43.2244 107.709 42.6994C108.058 41.8244 108.582 41.4744 109.281 41.4744C109.98 41.4744 110.329 42.1744 110.155 42.8744C109.805 44.0994 109.281 45.1494 108.932 46.0244C108.408 47.2494 107.709 48.2994 107.01 48.9994C106.486 49.6994 105.787 50.3994 105.088 50.7494C104.389 51.0994 103.69 51.4494 102.992 51.6244C102.467 51.6244 101.769 51.7994 101.244 51.7994C100.021 51.7994 98.9732 51.6244 98.0997 51.2744C97.2261 50.9244 96.5273 50.3994 96.0032 49.8744C95.479 49.1744 94.9549 48.4744 94.6055 47.7744C94.4308 47.0744 94.2561 46.3744 94.0813 45.4994C93.7319 40.9494 95.6537 35.8744 95.3043 31.4994C95.1296 30.0994 94.6055 28.6994 93.0331 28.6994C90.7619 28.6994 89.3642 31.8494 89.1895 33.7744L87.4424 48.1244C87.4424 49.8744 85.87 51.2744 84.1229 51.2744C81.8517 51.2744 80.1046 49.5244 79.9299 47.4244C79.7552 47.0744 79.7552 46.7244 79.9299 46.3744L82.1137 25.8994V25.7244C82.5505 23.6244 84.4723 22.0494 86.5688 22.3994Z" fill="#E43F7E"/>
<path fill-rule="evenodd" clip-rule="evenodd" d="M161.174 22.3145C163.271 22.4895 164.843 24.4145 164.668 26.5145V26.6895C166.241 24.5895 168.163 23.5395 170.783 23.5395C176.898 23.5395 177.946 28.4395 177.422 33.5145C177.073 36.6645 176.025 41.0395 176.199 44.0145C176.199 44.7145 176.374 45.2395 176.898 45.5895C177.248 46.1145 177.772 46.2895 178.645 46.2895C179.344 46.2895 180.043 46.1145 180.567 45.7645C181.091 45.2395 181.441 44.7145 181.79 44.0145C181.965 43.4895 182.314 43.1395 182.314 42.6145C182.664 41.7395 183.188 41.3895 183.887 41.3895C184.585 41.3895 184.935 42.0895 184.76 42.7895C184.411 44.0145 183.887 45.0645 183.537 45.9395C183.013 47.1645 182.314 48.2145 181.615 48.9145C181.091 49.6145 180.392 50.3145 179.694 50.6645C178.995 51.0145 178.296 51.3645 177.597 51.5395C177.073 51.5395 176.374 51.7145 175.85 51.7145C174.627 51.7145 173.579 51.5395 172.705 51.1895C171.832 50.8395 171.133 50.3145 170.609 49.7895C170.084 49.0895 169.56 48.3895 169.211 47.6895C169.036 46.9895 168.862 46.2895 168.687 45.4145C168.337 40.8645 170.259 35.7895 169.91 31.4145C169.735 30.0145 169.211 28.6145 167.639 28.6145C165.367 28.6145 163.97 31.7645 163.795 33.6895L162.048 48.0395C162.048 49.7895 160.475 51.1895 158.728 51.1895C156.457 51.1895 154.71 49.4395 154.535 47.3395C154.361 46.9895 154.361 46.6395 154.535 46.2895L156.807 25.8145V25.6395C157.156 23.5395 159.078 21.9645 161.174 22.3145Z" fill="#E43F7E"/>
<path d="M151.646 25.1123C151.733 25.9873 151.82 26.9498 151.82 27.8248C151.82 34.5623 149.899 41.8248 146.142 49.5248C145.444 50.9248 144.308 51.6248 142.561 51.7123C140.814 51.7998 139.154 51.5373 137.494 50.9248C132.515 49.0873 129.458 46.3748 128.147 42.7873C127.536 41.1248 127.274 39.2873 127.361 37.2748C127.361 36.5748 127.711 34.5623 128.322 31.3248C128.497 29.9248 128.671 29.0498 128.759 28.6998C129.021 27.7373 129.283 26.8623 129.72 26.2498L129.982 25.8998C129.982 25.7248 130.331 25.5498 131.117 25.5498C131.904 25.5498 132.428 25.6373 132.69 25.7248C134.612 25.8123 136.184 26.5998 137.494 28.0873C137.494 28.2623 137.582 28.4373 137.844 28.6123C138.106 28.7873 138.193 28.9623 138.193 29.0498C138.193 29.1373 138.106 29.3123 138.018 29.4873L137.756 30.0123C136.184 33.6873 135.398 37.0998 135.398 40.2498C135.398 42.0873 135.66 43.8373 136.097 45.5873C136.097 46.1998 136.533 46.8123 137.32 47.3373C137.669 47.5998 137.931 47.6873 138.28 47.6873C138.717 47.6873 139.154 47.4248 139.591 46.9873L139.765 46.8123C141.687 43.3998 143.347 39.3748 144.832 34.8248C145.618 32.3748 146.841 28.0873 148.414 22.1373V21.6998C148.501 21.5248 148.763 21.1748 149.2 20.7373H149.462C149.549 20.7373 149.637 20.7373 149.811 20.7373C149.986 20.7373 150.161 20.7373 150.335 20.8248L150.51 21.1748C151.209 22.5748 151.646 23.7998 151.646 25.1123Z" fill="#E43F7E"/>
</svg>
